<svg width="214" height="48" viewBox="0 0 214 48" fill="none" xmlns="http://www.w3.org/2000/svg">
<path d="M116.188 33.1875H97.4545L92.8778 8.01521C92.8228 7.7128 92.6634 7.43927 92.4274 7.24233C92.1914 7.04538 91.8938 6.9375 91.5864 6.9375H88.625" stroke="#808080" stroke-width="2" stroke-linecap="round" stroke-linejoin="round"/>
<path d="M99.125 39.75C100.937 39.75 102.406 38.2809 102.406 36.4688C102.406 34.6566 100.937 33.1875 99.125 33.1875C97.3128 33.1875 95.8438 34.6566 95.8438 36.4688C95.8438 38.2809 97.3128 39.75 99.125 39.75Z" stroke="#808080" stroke-width="2" stroke-linecap="round" stroke-linejoin="round"/>
<path d="M116.188 39.75C118 39.75 119.469 38.2809 119.469 36.4688C119.469 34.6566 118 33.1875 116.188 33.1875C114.375 33.1875 112.906 34.6566 112.906 36.4688C112.906 38.2809 114.375 39.75 116.188 39.75Z" stroke="#808080" stroke-width="2" stroke-linecap="round" stroke-linejoin="round"/>
<path d="M96.2614 26.625H116.86C117.475 26.625 118.07 26.4092 118.542 26.0153C119.014 25.6215 119.333 25.0744 119.443 24.4696L121.438 13.5H93.875" stroke="#808080" stroke-width="2" stroke-linecap="round" stroke-linejoin="round"/>
</svg>
