<svg width="140" height="140" viewBox="0 0 140 140" fill="none" xmlns="http://www.w3.org/2000/svg">
<path d="M65.9793 42.0795L80.2061 56.3062L38.7111 97.8011L24.4844 83.5744L65.9793 42.0795Z" fill="#00AEE9"/>
<path d="M87.0241 49.4891L114.292 76.7571L107.475 83.5741L80.207 56.3062L87.0241 49.4891Z" fill="#1D1D1D"/>
<path d="M77.3906 30.6683C81.1557 26.9034 87.2598 26.9034 91.0247 30.6683L125.703 65.3462L118.886 72.1632L77.3906 30.6683Z" fill="#1D1D1D"/>
<path d="M38.7131 69.3475L25.6719 56.3062L11.4451 70.533L24.4863 83.5743L38.7131 69.3475Z" fill="#00AEE9"/>
<path d="M65.9827 42.0795L52.9414 29.0382L38.7146 43.265L51.7558 56.3063L65.9827 42.0795Z" fill="#1D1D1D"/>
<path d="M93.8429 69.9402L107.477 83.5741L79.9848 111.066C77.0383 114.013 72.2611 114.013 69.3146 111.066L61.0156 102.768L93.8429 69.9402Z" fill="#00AEE9"/>
<path d="M80.2084 56.3062V89.8584C80.2084 101.317 70.9193 110.606 59.4609 110.606V77.0537L80.2084 56.3062Z" fill="#1D1D1D"/>
<path fill-rule="evenodd" clip-rule="evenodd" d="M59.4609 104.322L80.2086 83.5742V110.842L79.6159 111.435C74.1658 116.885 66.265 118.39 59.4609 115.951V104.322Z" fill="#1D1D1D"/>
<path d="M101.123 24.7222C103.005 22.8398 106.057 22.8398 107.94 24.7222L133.577 50.3598C135.542 52.3242 135.542 55.509 133.577 57.4732L130.317 60.7336L101.123 31.539C99.2403 29.6566 99.2403 26.6047 101.123 24.7222Z" fill="#1D1D1D"/>
<path d="M82.9029 25.157C87.4675 20.5926 95.2635 23.9639 95.064 30.416L93.8413 69.94L65.9805 42.0792L82.9029 25.157Z" fill="#00AEE9"/>
<path d="M24.4849 29.038C32.3421 21.1808 45.0813 21.1808 52.9387 29.038L11.4437 70.5329C3.58647 62.6758 3.58647 49.9366 11.4437 42.0792L24.4849 29.038Z" fill="#1D1D1D"/>
<path d="M25.672 27.8528L25.6718 84.7598L10.5559 69.644C3.18967 62.2777 3.18971 50.3347 10.556 42.9686L25.672 27.8528Z" fill="#00AEE9"/>
</svg>
