<svg width="45" height="15" viewBox="0 0 45 15" fill="none" xmlns="http://www.w3.org/2000/svg">
<path d="M13.2021 14.6892V1.57499C13.2021 1.16257 13.7462 1.01356 13.9564 1.36844L21.5695 14.2262C21.7796 14.581 22.3237 14.432 22.3237 14.0196V1.13611C22.3237 0.726204 22.8625 0.575239 23.0755 0.925469L31.4453 14.6892M26.7832 0.5L35.153 14.2637C35.366 14.6139 35.9048 14.463 35.9048 14.0531V1.14772C35.9048 0.723224 36.4745 0.584195 36.67 0.960966L43.4502 14.0255C43.646 14.4023 44.2156 14.2633 44.2156 13.8388V0.5M10.1216 1.65476V14.0196C10.1216 14.2435 9.94012 14.425 9.71622 14.425H1.40541C1.18151 14.425 1 14.2435 1 14.0196V1.65476C1 1.43086 1.18151 1.24935 1.40541 1.24935H9.71622C9.94012 1.24935 10.1216 1.43086 10.1216 1.65476Z" stroke="black"/>
</svg>
