<?xml version="1.0" encoding="UTF-8" standalone="no"?>
<svg
   width="160"
   height="14.590185"
   viewBox="0 0 160 14.590185"
   fill="none"
   version="1.1"
   id="svg44"
   sodipodi:docname="pass-bottom.svg"
   inkscape:version="1.2.1 (9c6d41e410, 2022-07-14)"
   xmlns:inkscape="http://www.inkscape.org/namespaces/inkscape"
   xmlns:sodipodi="http://sodipodi.sourceforge.net/DTD/sodipodi-0.dtd"
   xmlns="http://www.w3.org/2000/svg"
   xmlns:svg="http://www.w3.org/2000/svg">
  <defs
     id="defs48" />
  <sodipodi:namedview
     id="namedview46"
     pagecolor="#505050"
     bordercolor="#eeeeee"
     borderopacity="1"
     inkscape:showpageshadow="0"
     inkscape:pageopacity="0"
     inkscape:pagecheckerboard="0"
     inkscape:deskcolor="#505050"
     showgrid="false"
     inkscape:zoom="8.0000001"
     inkscape:cx="71.562499"
     inkscape:cy="-5"
     inkscape:window-width="1600"
     inkscape:window-height="863"
     inkscape:window-x="1920"
     inkscape:window-y="0"
     inkscape:window-maximized="1"
     inkscape:current-layer="svg44" />
  <path
     d="m 120.53332,14.590203 c 0,-1.769659 -1.4327,-3.204259 -3.2,-3.204259 -1.7673,0 -3.2,1.4346 -3.2,3.204259 h -4.2666 c 0,-1.769659 -1.4327,-3.204259 -3.2,-3.204259 -1.7673,0 -3.2,1.4346 -3.2,3.204259 l -3.684099,-5e-6 C 96.617921,6.761584 88.953021,1.239104 80.000022,1.239104 c -8.953,0 -16.6179,5.52248 -19.782601,13.351094 l -3.6844,3e-6 c 0,-1.769667 -1.432,-3.204257 -3.2,-3.204257 -1.767,0 -3.2,1.43459 -3.2,3.204256 h -4.266 c 10e-7,-1.769666 -1.433,-3.204256 -3.2,-3.204256 -1.768,0 -3.2,1.43459 -3.2,3.204256 h -4.267 c 0,-1.769666 -1.433,-3.204256 -3.2,-3.204256 -1.766999,0 -3.199999,1.43459 -3.199999,3.204255 h -4.267 c -10e-7,-1.769665 -1.432001,-3.204255 -3.200001,-3.204255 -1.767,0 -3.199999,1.43459 -3.199999,3.204254 h -4.266 c -1e-6,-1.769664 -1.433001,-3.204254 -3.200001,-3.204254 -1.768,0 -3.199999,1.43459 -3.199999,3.204254 H 3.200021 c 0,-1.769664 -1.433,-3.204254 -3.2,-3.204254 l 0.001,-11.383565 159.998999,-0.0024 v 11.385975 c -1.76731,0 -3.2,1.43459 -3.2,3.204245 l -4.26667,2e-6 c 0,-1.769657 -1.43269,-3.204257 -3.20003,-3.204257 -1.7673,0 -3.2,1.4346 -3.2,3.20426 h -4.2666 c 0,-1.76966 -1.4327,-3.20426 -3.2,-3.20426 -1.7673,0 -3.2,1.4346 -3.2,3.20426 h -4.2667 c 0,-1.76966 -1.4327,-3.20426 -3.2,-3.20426 -1.7673,0 -3.2,1.4346 -3.2,3.20426 z"
     fill="#288bc2"
     id="path42"
     sodipodi:nodetypes="csccsccsccsccsccsccsccsccccccccsccsccscc"
     style="fill:#f2f2f2;fill-opacity:1" />
</svg>
