<?xml version="1.0" standalone="no"?>
<!DOCTYPE svg PUBLIC "-//W3C//DTD SVG 20010904//EN"
 "http://www.w3.org/TR/2001/REC-SVG-20010904/DTD/svg10.dtd">
<svg version="1.0" xmlns="http://www.w3.org/2000/svg"
 width="600.000000pt" height="800.000000pt" viewBox="0 0 600.000000 800.000000"
 preserveAspectRatio="xMidYMid meet">

<g transform="translate(0.000000,800.000000) scale(0.100000,-0.100000)"
fill="#000000" stroke="none">
<path d="M160 3187 l0 -2393 23 -44 c16 -33 34 -51 67 -67 l44 -23 2706 0
2706 0 44 22 c33 17 51 35 68 68 l22 44 0 2393 0 2393 -2840 0 -2840 0 0
-2393z m5640 883 l0 -550 -2800 0 -2800 0 0 550 0 550 2800 0 2800 0 0 -550z
m0 -1935 c0 -1478 4 -1387 -60 -1420 -26 -13 -336 -15 -2740 -15 -2404 0
-2714 2 -2740 15 -64 33 -60 -58 -60 1420 l0 1345 2800 0 2800 0 0 -1345z"/>
</g>
</svg>
