<svg width="114" height="152" viewBox="0 0 114 152" fill="none" xmlns="http://www.w3.org/2000/svg">
<path d="M28.12 0C28.12 1.25921 29.1408 2.28 30.4 2.28C31.6592 2.28 32.68 1.25921 32.68 0H35.72C35.72 1.25921 36.7408 2.28 38 2.28C39.2592 2.28 40.28 1.25921 40.28 0H42.9049C45.1598 5.57048 50.621 9.5 57 9.5C63.379 9.5 68.8402 5.57048 71.0951 0H73.72C73.72 1.25921 74.7408 2.28 76 2.28C77.2592 2.28 78.28 1.25921 78.28 0H81.32C81.32 1.25921 82.3408 2.28 83.6 2.28C84.8592 2.28 85.88 1.25921 85.88 0H88.92C88.92 1.25921 89.9408 2.28 91.2 2.28C92.4592 2.28 93.48 1.25921 93.48 0H96.52C96.52 1.25921 97.5408 2.28 98.8 2.28C100.059 2.28 101.08 1.25921 101.08 0H104.12C104.12 1.25921 105.141 2.28 106.4 2.28C107.659 2.28 108.68 1.25921 108.68 0H111.72C111.72 1.25921 112.741 2.28 114 2.28V149.72C112.741 149.72 111.72 150.741 111.72 152H108.68C108.68 150.741 107.659 149.72 106.4 149.72C105.141 149.72 104.12 150.741 104.12 152H101.08C101.08 150.741 100.059 149.72 98.8 149.72C97.5408 149.72 96.52 150.741 96.52 152H93.48C93.48 150.741 92.4592 149.72 91.2 149.72C89.9408 149.72 88.92 150.741 88.92 152H85.88C85.88 150.741 84.8592 149.72 83.6 149.72C82.3408 149.72 81.32 150.741 81.32 152H78.28C78.28 150.741 77.2592 149.72 76 149.72C74.7408 149.72 73.72 150.741 73.72 152H71.0951C68.8402 146.43 63.379 142.5 57 142.5C50.621 142.5 45.1598 146.43 42.9049 152H40.28C40.28 150.741 39.2592 149.72 38 149.72C36.7408 149.72 35.72 150.741 35.72 152H32.68C32.68 150.741 31.6592 149.72 30.4 149.72C29.1408 149.72 28.12 150.741 28.12 152H25.08C25.08 150.741 24.0592 149.72 22.8 149.72C21.5408 149.72 20.52 150.741 20.52 152H17.48C17.48 150.741 16.4592 149.72 15.2 149.72C13.9408 149.72 12.92 150.741 12.92 152H9.88C9.88 150.741 8.85921 149.72 7.6 149.72C6.34079 149.72 5.32 150.741 5.32 152H2.28C2.28 150.741 1.25921 149.72 0 149.72V2.28C1.25921 2.28 2.28 1.25921 2.28 0H5.32C5.32 1.25921 6.34079 2.28 7.6 2.28C8.85921 2.28 9.88 1.25921 9.88 0H12.92C12.92 1.25921 13.9408 2.28 15.2 2.28C16.4592 2.28 17.48 1.25921 17.48 0H20.52C20.52 1.25921 21.5408 2.28 22.8 2.28C24.0592 2.28 25.08 1.25921 25.08 0H28.12Z" fill="#FEF200"/>
</svg>
